<svg id="Capa_1" enable-background="new 0 0 512 512" height="300" viewBox="0 0 512 512" width="300" xmlns="http://www.w3.org/2000/svg" xmlns:xlink="http://www.w3.org/1999/xlink"><linearGradient id="SVGID_1_" gradientUnits="userSpaceOnUse" x1="74.981" x2="437.019" y1="74.981" y2="437.019"><stop offset="0" stop-color="#54747f"/><stop offset="1" stop-color="#455e72"/></linearGradient><linearGradient id="SVGID_2_" gradientUnits="userSpaceOnUse" x1="166.536" x2="343.43" y1="111.382" y2="288.275"><stop offset="0" stop-color="#e9f2f2"/><stop offset="1" stop-color="#d5e5e5"/></linearGradient><linearGradient id="SVGID_3_" gradientUnits="userSpaceOnUse" x1="167.621" x2="343.318" y1="290.369" y2="466.066"><stop offset="0" stop-color="#94e5cf"/><stop offset="1" stop-color="#5a9898"/></linearGradient><g><circle cx="256" cy="256" fill="url(#SVGID_1_)" r="256"/><g><path d="m341.792 289.913s-28.79 5.642-46.882 5.642c-21.593 0-42.408 10.31-43.185 10.699-.195.195-17.703 8.754-34.627 8.754s-34.432-8.559-34.627-8.754l-7.586-23.149 32.486-48.827v-124.825h-19.453v-19.453h136.172v19.453h-19.453v124.824z" fill="url(#SVGID_2_)"/><path d="m401.125 406.438c-5.058 9.532-14.979 15.562-25.873 15.562h-238.495c-10.894 0-20.815-6.03-25.873-15.562s-4.28-21.009 1.751-29.763l51.356-77.424h.195l10.699-16.146 7.587 3.696c.195.194 17.702 8.754 34.627 8.754s34.432-8.559 34.627-8.754c.259-.13 2.691-1.336 6.614-2.898 7.976-3.171 22.099-7.801 36.572-7.801 23.078 0 46.882 13.812 46.882 13.812 2.133 3.151-2.244-3.482 18.87 28.402l38.906 58.359c5.835 8.753 6.613 20.23 1.555 29.763z" fill="url(#SVGID_3_)"/><g id="Medical_Lab_1_"><g><path d="m285.184 324.734h19.453v19.453h-19.453z" fill="#5a9898"/></g><g><path d="m246.278 363.641h19.453v19.453h-19.453z" fill="#7ccbbf"/></g><g><path d="m207.372 344.188h19.453v19.453h-19.453z" fill="#7ccbbf"/></g><g><path d="m246.278 246.922h19.453v19.453h-19.453z" fill="#7ccbbf"/></g></g></g></g></svg>
