<?xml version="1.0" encoding="utf-8"?>
<!-- Generator: Adobe Illustrator 24.1.2, SVG Export Plug-In . SVG Version: 6.00 Build 0)  -->
<svg version="1.1" id="Layer_1" xmlns="http://www.w3.org/2000/svg" xmlns:xlink="http://www.w3.org/1999/xlink" x="0px" y="0px"
	 viewBox="0 0 1279 792" style="enable-background:new 0 0 1279 792;" xml:space="preserve">
<style type="text/css">
	.st0{fill:#FEFEFE;}
	.st1{fill:#A5B1B1;}
	.st2{fill:#CCA7CC;}
	.st3{fill:#030303;}
	.st4{fill:#060606;}
	.st5{fill:#070707;}
	.st6{fill:#131313;}
	.st7{fill:#161616;}
	.st8{fill:#202020;}
	.st9{fill:#050505;}
	.st10{fill:#FDFDFD;}
	.st11{fill:#C8A3C8;}
	.st12{fill:#FBFBFB;}
	.st13{fill:#F9F9F9;}
</style>
<g>
	<g>
		<path class="st0" d="M1276.9,353c0,144.1,0,288.1,0.1,432.2c0,4.3-1.1,4.8-5,4.8c-316-0.1-632-0.1-948-0.1c0.6-1.1,1.6-1,2.6-1
			c13.6-0.2,27.1-2,40.6-4.2c1.8,0,3.7,0.3,5.4,0.1c30.5-4.1,60.6-10,89.2-21.9c15.8-6.6,31.5-13.5,43.9-25.9
			c18.3-18.1,19-38.2,1.7-57.2c-11.7-12.9-26.5-21.4-42.1-28.8c-20.3-9.6-41.6-16.6-63.3-22.1c-0.3-4.3-0.4-8.6,0.5-12.9
			c4.8-21.9,9.7-43.8,14.3-65.7c11.7-54.7,23.2-109.4,34.9-164.1c0.8-3.8,0.8-7.9,3.4-11.2c4.2,2.7,8.3,5.6,12.6,7.9
			c15.8,8.6,32.9,10.7,50.7,10.2c17.2-0.5,33.3-4.6,47.7-14c26.3-17.4,40.7-41.4,37.7-73.6c-2.9-31.2-19.1-53.5-47.8-66.5
			c-23.4-10.6-47.4-12-72-5c3.1-18.8,7.7-37.3,11.6-56c7.6-36,15.6-71.9,23.1-108c3.7-17.8-11.5-32.3-27.7-26.9
			c-7.1,2.4-11,7.8-13.1,14.6c-1.8,6-3.5,12.1-4.8,18.3c-1,4.8-3.8,5.7-8,4.8c-33.3-7.1-66.5-14.1-99.8-21.1
			c-12.6-2.7-25.2-5.6-37.9-8.3c-4.4-0.9-6.4-3.3-5.5-7.7c0.6-3.3,1.3-6.5,2-9.7c4.5-19,1.6-24.8-16-31.9c321.3,0,642.6,0,964-0.1
			c3.8,0,5,0.4,5,4.7c-0.2,109.8-0.1,219.5-0.1,329.3c-2.1-6.9-4.3-13.8-9.2-19.4c-6.6-7.6-15.2-12.2-24.1-16.5
			c-12.4-5.9-25.8-9.6-38-16.1c-4.8-2.5-9-5.6-8.5-11.7c0.5-6.3,5.2-8.7,10.6-10.5c8.2-2.7,16.5-1.8,24.7-0.4
			c11.9,2,22.8,7.1,34.1,10.9c2.8,0.9,4.3,1.3,4.1-2.5c-0.5-7.3-0.5-14.6-0.1-21.9c0.2-3.5-1.8-5.7-5.1-7.2
			c-21.8-9.3-44.6-12.5-67.9-8.6c-15.3,2.6-28.8,9.6-36.7,24c-12.4,22.6-2.6,50.1,22.2,62.5c9.7,4.8,19.7,8.7,29.9,12.2
			c6.6,2.3,13.1,4.9,18.5,9.4c7.1,5.9,6,16-2.1,20.4c-2.5,1.4-5.3,1.8-8.1,2.2c-18,2.6-34.1-3.2-49.5-11.8
			c-4.1-2.3-8.2-4.8-12.9-7.4c0,10.5,0,20.3,0,30.1c0,3,1.5,4.9,4.2,6.2c23.5,11.7,48,16.6,74,10.7c20.3-4.6,35.3-15.2,39.3-37.2
			C1276.2,353.4,1276.6,353.2,1276.9,353z M1044.1,393c20.1,0,33.1-3.5,48.8-11.9c47.8-25.7,57-92.5,13.6-129.2
			c-33.1-28-89.4-29.4-123-1.9c-36,29.5-40.7,79.3-10.7,113.4C991.8,384.8,1016.1,393.3,1044.1,393z M774.8,311.3
			c0,24.6,0.1,49.3-0.1,73.9c0,4.5,1.5,5.7,5.6,5.7c13.3-0.1,26.6,0,40-0.1c14.6,0,29.3,0.5,43.8-1.8c16.9-2.8,32.5-8.5,45-20.6
			c17.3-16.8,22.7-37.7,22.2-61.2c-0.7-34.3-25.2-63.6-59.3-71.7c-12.3-2.9-24.7-2.9-37.2-3c-18.3-0.2-36.6-0.2-54.9-0.2
			c-3.7,0-5.3,1.4-5.2,5.7C774.9,262.4,774.8,286.8,774.8,311.3z M632.8,311.6c0,24.2,0,48.3,0,72.5c0,6.5,0.4,6.9,6.7,7
			c2.7,0,5.3,0,8,0c33,0,66,0,98.9,0c5.9,0,6.7-0.8,6.7-6.5c0-4.8-0.1-9.7,0-14.5c0.2-7.9-0.6-8.8-8.7-8.8
			c-19.5,0.1-39,0.2-58.4,0.3c-13.4,0-13.5-0.1-13.5-13.7c0-36.3-0.1-72.6,0.1-108.9c0-4.8-1.6-6.5-6.3-6.4c-9,0.3-18,0.2-27,0
			c-4.9-0.1-6.6,1.5-6.6,6.6C632.9,263.2,632.8,287.4,632.8,311.6z M632.6,484.7c1.2-3.4,1.2-6.8,1.6-10.1c0.7-5.5-1.5-8.9-6.7-10.7
			c-5.2-1.8-10.2-4.2-15.5-5.4c-26.3-6.2-51-4.2-72.1,14.8c-36.3,32.7-26.1,94.2,18.7,111.5c23.5,9.1,47.1,6.2,70.3-1.7
			c4.8-1.6,7.3-5.4,7.6-10.1c0.9-13.6,1.5-27.3-0.6-40.9c-0.9-6.1-3.8-8.6-10-9.3c-9.5-1.1-18.9,0.4-28.4,1
			c-5.8,0.4-5.2,5.1-5.2,9.1c0,4.2,1.1,7.7,6.3,7.9c3.5,0.1,7,0,10.5,0.2c7.5,0.3,8.6,1.6,8.8,8.8c0,2.5,0.4,5,0.5,7.5
			c0.2,6.7-1.8,9.7-8.1,12.1c-9.6,3.6-19.4,4.1-29.5,2.6c-29-4.3-47.6-31.4-41.1-59.9c6.2-27.5,32.9-43.6,61.6-37.6
			C612.2,476.7,622.2,481.1,632.6,484.7z M931.8,564.9c0,19.6,0,39.3,0,58.9c0,6.4,2.6,8.6,9.4,8.6c6.4-0.1,8.7-2.3,8.7-8.8
			c0-8.3,0-16.6,0-25c0-8.5,2.8-10.9,11-9.4c8.2,1.4,16.3,0.6,24-2.5c16.4-6.6,25.5-21.5,25.6-41.3c0.1-21.5-9.9-35.9-29.3-41
			c-15.1-4-30.6-3.5-46.1-2.3c-3.5,0.3-3.3,2.4-3.3,4.8C931.8,526.3,931.8,545.6,931.8,564.9z M775.5,501.7
			c-17.5,0.2-31.1,5.5-40.3,19.3c-12.6,18.8-8.2,46.4,9.3,59.8c18.5,14.1,49.4,11.9,64.3-5.2c12.8-14.7,14.3-31.7,6.8-48.9
			C807.9,509.1,792.7,502.2,775.5,501.7z M910.8,543.7c0.1,0,0.1,0,0.2,0c0-10.7,0-21.3,0-32c0-7.9-3.3-11-11-10.2
			c-5.5,0.6-7.8,3.2-7.8,10.1c0,13.3,0.5,26.6,0,39.9c-0.2,4.2-0.4,8.3-2.1,12.2c-3.4,7.6-11.1,11.4-20.8,10.3
			c-7.4-0.9-11.1-4.9-12.5-13.9c-0.5-3.4-0.7-7-0.8-10.4c-0.1-13.2,0-26.3-0.1-39.5c0-6.4-2.6-8.7-9.4-8.7c-6.3-0.1-9,2.3-9.1,8.5
			c-0.1,16.8-0.3,33.6,0.7,50.4c0.4,7.6,2.2,14.8,7.3,20.8c7.7,9.1,19.4,11.4,33.4,6.1c6.5-2.5,12.3-2.6,18.5,1.1
			c6.1,3.7,11.1,1.1,12.6-5.8c0.5-2.4,0.7-4.9,0.8-7.4C910.8,564.7,910.8,554.2,910.8,543.7z M681.2,514c0-1.7,0-2.9,0-4
			c-0.1-6.4-2.3-8.6-8.8-8.6c-7.9,0-10.5,2.1-10.5,8.6c0,10.5,0.1,21,0.1,31.4c0,12.8,0,25.6,0,38.4c0,4.1,1.1,8,5.7,8.8
			c7.4,1.3,13.5,0.6,13.4-10c-0.2-12.6-0.2-25.3,0-37.9c0.3-18.2,14.9-27.1,30.6-18.8c0.3,0.2,0.6,0.3,0.9,0.5c3,1.3,5.5,1,7.4-1.8
			c1.2-1.8,2.4-3.6,3.4-5.5c1.8-3.3,1.5-6.2-1.4-9c-7.6-7.3-18.7-8.3-27.4-2.3C690.2,506.9,686,510.3,681.2,514z M1213.8,219.4
			c4,0.2,7.2,0.3,10.3,0.5c5.1,0.4,8.5-1.6,10.8-6.3c2.5-5.1,5.3-10,8.2-14.8c3.2-5.6,6.8-11.1,8.8-17.2c0.4-1.1,1.9-2.8-1.1-3
			c-10.3-0.5-20.5-0.7-26.4,10.2c-0.5,0.9-1.3,1.5-2,2.2c-7.1,7.5-7.8,8-14-0.2c-6.7-8.8-14-13.8-25.5-12.3
			c-5.3,0.7-6.2,0.6-3.7,5.4c4.3,8.1,9.7,15.6,13.4,23.9C1197,218.1,1203.5,222.8,1213.8,219.4z"/>
		<path class="st0" d="M2.1,685.9c0-226.3,0-452.6-0.1-679c0-3.8,0.5-5,4.7-5C104.2,2.2,201.6,2.1,299,2.1
			c-5.7,2.3-10.6,5.5-13.4,11.2c-1.7,3.5-2.3,7.3-3.1,11c-6.8,32-13.7,63.9-20.5,95.9c-8.2,38.8-16.4,77.6-24.6,116.3
			c-2.7,12.8-6.2,25.5-7.2,38.6c-1,3.2-2.2,6.3-2.9,9.5c-6.4,29.5-12.5,59-18.9,88.5c-17.5,80.5-33.1,161.4-52.2,241.5
			c-3.8,0.4-7.6,0.8-11.4,1.3c-33.2,4.3-65.6,12.2-96.2,26C28.3,651.1,9.3,662.6,2.1,685.9z"/>
		<path class="st1" d="M156.1,614.7c19.1-80.1,34.7-161,52.2-241.5c6.4-29.5,12.6-59,18.9-88.5c0.7-3.2,1.9-6.3,2.9-9.5
			c2.5-1.3,4.9-2.7,7.5-3.8c12.5-5.3,26.7-0.5,31.5,11.9c-0.2,2.1-0.4,4.3-0.6,6.4c-0.9,7.8-4.6,15.2-3.4,23.4
			c-0.4,1.8-0.8,3.5-1.3,5.3c-3,11.4-6,22.8-5.9,34.7c-4,1-4.1,4.7-4.7,7.5c-1.8,9.4-3.7,18.8-5.9,28.1c-1.9,8-0.7,10,7.2,11.9
			c1.8,0.4,3.5,0.8,5.3,1.1c24.4,5.2,48.8,10.2,73.1,15.6c6.7,1.5,13.9,1.5,20.1,5c3.8,2.2,8.1,3.8,12.1,3.7
			c9.6-0.1,18.7,1.7,27.9,3.9c3.4,0.8,6.5-0.2,7.1-4.8c0.5-3.7,1.8-7.4,2.3-11.1c1.4-9.6,4.8-18.9,5.3-28.7c2.4-14.2,6.1-28,9.1-42
			c2.8-8.2,5.1-16.5,6.6-25.1c1.4,18.2,8.4,34,21,47.1c3.3,3.4,7,6.6,10.5,9.8c-2.6,3.3-2.6,7.4-3.4,11.2
			c-11.6,54.7-23.2,109.4-34.9,164.1c-4.7,21.9-9.5,43.8-14.3,65.7c-0.9,4.3-0.8,8.6-0.5,12.9c-2.9,1.1-3.5,3.6-4,6.3
			c-6.8,32.1-14,64.2-20.4,96.4c-3.5,17.7-9.2,35-10.3,53.1c-13.4,2.2-26.9,4-40.6,4.2c-1,0-2-0.1-2.6,1c-20.7,0-41.3,0-62,0
			c-0.3-0.5-0.7-0.6-1,0c-2.7,0-5.3,0-8,0c-1.8-1.8-4-0.7-6.1-0.9c-9.8,0-19.5-1.2-29.3-1.9c-28.7-2-56.9-7.3-85.1-12.6
			c-2.5-0.5-5.5-0.5-6.5-3.7c-1-3.9,0.3-7.5,1.1-11.3c9.9-46.1,19.8-92.1,29.8-138.2C157.4,619.1,157.3,616.8,156.1,614.7z
			 M308.1,503.2c2.2,4.4,6.4,5.1,10.5,5.6c2,0.2,5,1.6,6.5-1.6c1.5-0.2,2.9,0,4.4,0.3c13.1,2.9,26.1,5.9,39.2,8.5
			c11.7,2.3,12.2,2.2,14.7-9.1c2.3-10.1,5.4-20.1,5.7-30.6c0.1-3.4-1.3-4.7-4.3-5.3c-17.4-3.7-34.9-7.4-52.3-11.2
			c-21.3-4.6-42.5-9.5-63.9-13.8c-9-1.8-17.9-4.7-27.3-5.1c-3.8-0.2-5.4,1.4-6.1,4.8c-2.3,11.3-4.8,22.6-6.8,34
			c-0.6,3.5,0.3,6.3,5.1,7.4C258.2,493,283.2,497.7,308.1,503.2z M224.9,527.8c-6.2-0.1-6.7,0.3-7.9,5.2c-1.7,6.7-3.4,13.4-4.8,20.2
			c-1,4.8-1.4,9.8-2.1,14.7c-0.5,3.7,1.3,5.4,4.9,6.2c15.8,3.3,31.6,6.6,47.5,10c18.2,3.9,36.4,7.9,54.7,11.7
			c12.6,2.6,25.2,5,37.6,8.6c5.2,1.5,9.2-0.9,10.1-5.3c2.1-10.7,4.1-21.4,6-32.1c0.9-5-1.5-8.7-6.2-9.7c-21.5-4.5-42.9-9-64.4-13.5
			c-15.8-3.3-31.6-6.6-47.5-10C243.1,531.8,233.4,529.7,224.9,527.8z M334.1,737.2c0.3-4.1-2.8-4.4-5.3-4.9c-47-10.1-94-20-141-30.1
			c-4.3-0.9-6.7,0.7-7.6,5c-2.1,10.3-4.3,20.5-6.4,30.8c-1.6,7.7-1.2,8.2,6.7,9.9c22.9,4.9,45.8,9.9,68.8,14.8
			c22.9,4.9,45.9,9.7,68.8,14.6c5.8,1.2,7.6,0.1,8.7-5.6c0.7-3.3,1.2-6.5,1.9-9.8C330.6,753.5,332.4,745.2,334.1,737.2z M352,651.6
			c0.3-5.1-2.9-5.2-5.6-5.7c-47.3-10.1-94.6-20.2-141.8-30.5c-3.1-0.7-4.4-0.3-5,3.1c-2.1,10.8-4.5,21.5-6.8,32.2
			c-1.7,7.6-1.3,8.3,6,9.9c45.7,9.7,91.3,19.5,137,29.2c7.6,1.6,7.8,1.5,9.5-6.4c0.5-2.1,1-4.2,1.5-6.3
			C348.5,668.3,350.3,659.5,352,651.6z"/>
		<path class="st2" d="M269.2,283.2c-4.9-12.4-19-17.2-31.5-11.9c-2.6,1.1-5,2.5-7.5,3.8c1-13.1,4.6-25.8,7.2-38.6
			c8.2-38.8,16.4-77.6,24.6-116.3c6.8-32,13.7-63.9,20.5-95.9c0.8-3.7,1.4-7.5,3.1-11c2.8-5.7,7.7-8.9,13.4-11.2c3,0,6,0,9,0
			c17.6,7.1,20.5,12.9,16,31.9c-0.8,3.2-1.4,6.5-2,9.7c-0.8,4.4,1.1,6.8,5.5,7.7c12.7,2.7,25.3,5.6,37.9,8.3
			c33.2,7.1,66.5,14.1,99.8,21.1c4.2,0.9,7,0,8-4.8c1.3-6.2,3-12.3,4.8-18.3c2-6.9,6-12.2,13.1-14.6c16.2-5.5,31.4,9.1,27.7,26.9
			c-7.6,36-15.6,72-23.1,108c-3.9,18.6-8.5,37.2-11.6,56c-1.5,1.4-3.6,1.7-5.4,2.4c-20.2,7.7-36.5,19.7-46.1,39.8
			c-3.4,7.1-5.4,14.5-7.6,22c-6.6-1.4-13.2-2.6-19.8-4.1c-11.7-2.6-23.4-5.3-35.1-8c8-12.5,16-25,24.9-37c4.4,0.1,9.1,0.5,12.5,2.7
			c7.9,5.1,16.8,2.1,25,4.4c2.7,0.8,3.9-0.8,4.4-3.3c0.9-4.4,2-8.7,3-13c1.7-7.1,3.5-14.1,5-21.2c0.5-2.4,1.7-6.1-1.5-7.1
			c-4.6-1.4-9-3.8-13.7-4.2c-15.6-1.4-30.5-6-45.7-8.9c-26.1-5-52-11-78.1-16.2c-13.2-2.7-13.3-2.4-16.4,10.5
			c-1.9,7.9-3.6,15.8-5.1,23.7c-1.4,7.3,0.1,9.1,7.3,10.6c9.2,1.8,18.3,3.9,27.5,5.8c-18.6,0-37.2,0.2-55.9,0
			c-4.1,0-5.8,1.4-5.7,5.4c0.1,5.8,0.1,11.6,0,17.5c-0.1,4.5,1.7,6.4,6.5,6.3c20.6-0.2,41.2-0.1,61.9-0.1c2.5,0,5,0,7.5,0.1
			c3,0.1,4.5,1,2.2,4.1c-2.7,3.6-5.1,7.3-7.7,11c-15.3-3.2-30.6-6.3-45.9-9.6c-6.4-1.3-8.3,0-10.2,5.8
			C270.7,276.6,272.3,280.5,269.2,283.2z M463.3,129.9c0.8-4.6-2-5.9-5.7-6.7c-19.5-4.2-39.1-8.4-58.6-12.5
			c-27.3-5.8-54.6-11.6-81.9-17.3c-3.7-0.8-6.6,0.1-7.4,4.4c-0.2,1.3-0.6,2.6-0.9,3.9c-3.1,10.1-4.7,20.6-6.5,31
			c-0.5,2.6-0.9,5.5,2.9,6.3c14,3.1,28.1,6.2,42.1,9.1c25.4,5.4,50.7,10.6,76.1,16c7.6,1.6,15.1,3.4,22.8,4.8
			c3.9,0.7,8.3,0.6,9.5-4.2C458.4,153.1,460.8,141.5,463.3,129.9z"/>
		<path class="st3" d="M156.1,614.7c1.2,2.1,1.3,4.4,0.8,6.8c-9.9,46.1-19.8,92.1-29.8,138.2c-0.8,3.7-2.1,7.4-1.1,11.3
			c-3,1.1-5.9,0.6-8.8-0.2c-26.1-6.6-51.3-15.9-74.8-29.1c-18-10.1-34.1-22.5-40.4-43.7c0-4,0-8,0-12c7.2-23.3,26.2-34.8,46.4-44
			c30.6-13.9,62.9-21.7,96.2-26C148.5,615.4,152.3,615.1,156.1,614.7z"/>
		<path class="st4" d="M1276.9,353c-0.2,0.2-0.7,0.4-0.7,0.6c-4,22-19,32.6-39.3,37.2c-26,5.9-50.5,0.9-74-10.7
			c-2.6-1.3-4.2-3.1-4.2-6.2c0-9.8,0-19.6,0-30.1c4.6,2.7,8.7,5.1,12.9,7.4c15.4,8.6,31.4,14.4,49.5,11.8c2.8-0.4,5.6-0.8,8.1-2.2
			c8.1-4.4,9.2-14.5,2.1-20.4c-5.4-4.5-11.9-7.2-18.5-9.4c-10.2-3.5-20.3-7.4-29.9-12.2c-24.8-12.4-34.7-39.9-22.2-62.5
			c7.9-14.4,21.4-21.4,36.7-24c23.3-4,46-0.7,67.9,8.6c3.3,1.4,5.3,3.6,5.1,7.2c-0.4,7.3-0.4,14.6,0.1,21.9c0.3,3.8-1.2,3.5-4.1,2.5
			c-11.3-3.8-22.2-8.9-34.1-10.9c-8.2-1.4-16.5-2.3-24.7,0.4c-5.3,1.7-10.1,4.1-10.6,10.5c-0.5,6.1,3.8,9.2,8.5,11.7
			c12.2,6.5,25.6,10.1,38,16.1c8.9,4.2,17.5,8.9,24.1,16.5c4.9,5.6,7.1,12.5,9.2,19.4C1276.9,341.7,1276.9,347.4,1276.9,353z"/>
		<path class="st0" d="M2.1,697.9c6.2,21.2,22.3,33.6,40.4,43.7c23.5,13.2,48.7,22.5,74.8,29.1c2.9,0.7,5.9,1.3,8.8,0.2
			c1.1,3.2,4.1,3.2,6.5,3.7c28.2,5.3,56.4,10.6,85.1,12.6c9.8,0.7,19.5,1.8,29.3,1.9c0.1,0.3,0.1,0.6,0.1,0.9
			c-80.3,0-160.6,0-241,0.1c-3.4,0-4.1-0.7-4.1-4.1C2.2,756.6,2.1,727.3,2.1,697.9z"/>
		<path class="st2" d="M247.1,789.9c0-0.3,0-0.6-0.1-0.9c2,0.2,4.3-0.9,6.1,0.9C251.1,789.9,249.1,789.9,247.1,789.9z"/>
		<path class="st2" d="M261.1,789.9c0.3-0.6,0.7-0.5,1,0C261.7,789.9,261.4,789.9,261.1,789.9z"/>
		<path class="st5" d="M1044.1,393c-28,0.3-52.4-8.3-71.3-29.7c-30.1-34-25.4-83.9,10.7-113.4c33.6-27.5,89.9-26.1,123,1.9
			c43.4,36.7,34.1,103.5-13.6,129.2C1077.2,389.5,1064.2,393,1044.1,393z M1043.6,360.3c4.3-0.2,8.6,0.3,12.9-0.7
			c29.1-6.6,41.4-30.4,36.8-57.9c-3.4-20.6-17.7-36-41.1-38.1c-12.7-1.1-25-0.6-36.3,6c-16.6,9.7-22.8,24.9-22.5,43.6
			c0.2,12.6,3.7,23.5,12.4,32.6C1016,356.5,1028.9,360.9,1043.6,360.3z"/>
		<path class="st5" d="M424.9,298.1c2.2-7.4,4.2-14.9,7.6-22c9.6-20,26-32.1,46.1-39.8c1.8-0.7,3.9-1,5.4-2.4
			c24.6-7.1,48.6-5.6,72,5c28.7,13,45,35.3,47.8,66.5c2.9,32.2-11.4,56.2-37.7,73.6c-14.4,9.5-30.5,13.5-47.7,14
			c-17.8,0.5-34.9-1.6-50.7-10.2c-4.4-2.4-8.4-5.3-12.6-7.9c-3.5-3.3-7.2-6.4-10.5-9.8c-12.7-13.2-19.7-28.9-21-47.1
			C424,311.4,424.5,304.7,424.9,298.1z M514,263.2c-6.7,0-13.3,0.3-19.6,2.8c-10.5,4-19.2,9.9-24.7,20.2c-5,9.3-6.6,18.9-6.2,29.2
			c0.7,17,8.9,29.4,22.7,38.5c10.4,6.8,22.1,7,34,6.6c15.9-0.6,27.5-8.5,36.1-21.3c9.1-13.6,8.2-28.7,5.2-43.7
			c-1.3-6.4-4.3-12.5-9-17.3C542,267.3,528.9,262.9,514,263.2z"/>
		<path class="st3" d="M367.3,784.7c1.1-18.2,6.8-35.4,10.3-53.1c6.4-32.2,13.6-64.2,20.4-96.4c0.6-2.7,1.1-5.2,4-6.3
			c21.8,5.5,43,12.5,63.3,22.1c15.6,7.3,30.3,15.9,42.1,28.8c17.3,19,16.6,39.1-1.7,57.2c-12.5,12.4-28.1,19.3-43.9,25.9
			c-28.6,11.9-58.7,17.8-89.2,21.9C370.9,785.1,369.1,784.8,367.3,784.7z"/>
		<path class="st5" d="M774.8,311.3c0-24.5,0.1-48.9-0.1-73.4c0-4.2,1.6-5.7,5.2-5.7c18.3,0,36.6,0,54.9,0.2
			c12.5,0.1,24.9,0.1,37.2,3c34.1,8.1,58.5,37.4,59.3,71.7c0.5,23.6-4.8,44.5-22.2,61.2c-12.5,12.1-28.1,17.9-45,20.6
			c-14.5,2.4-29.2,1.8-43.8,1.8c-13.3,0-26.6-0.1-40,0.1c-4.2,0-5.7-1.2-5.6-5.7C774.9,360.6,774.8,336,774.8,311.3z M813.5,312
			c0,14.7,0.1,29.3,0,44c0,4.1,1.3,6.5,5.7,6.3c12.7-0.6,25.6,1.5,38.2-2c12.4-3.5,22.3-10.5,27.9-22.1c7.7-16,7.9-32.6,1.4-49.2
			c-6.6-16.8-19.9-24.9-36.9-26.9c-9.7-1.2-19.6-0.4-29.5-0.4c-6.3,0-6.7,0.5-6.8,6.9C813.5,283.1,813.5,297.5,813.5,312z"/>
		<path class="st5" d="M632.8,311.6c0-24.2,0.1-48.3-0.1-72.5c-0.1-5.1,1.7-6.8,6.6-6.6c9,0.2,18,0.2,27,0c4.8-0.1,6.4,1.6,6.3,6.4
			c-0.1,36.3-0.1,72.6-0.1,108.9c0,13.6,0.1,13.8,13.5,13.7c19.5-0.1,39-0.2,58.4-0.3c8.1,0,8.9,0.9,8.7,8.8c-0.1,4.8,0,9.7,0,14.5
			c0,5.8-0.8,6.5-6.7,6.5c-33,0-66,0-98.9,0c-2.7,0-5.3,0-8,0c-6.2-0.1-6.7-0.5-6.7-7C632.8,359.9,632.8,335.7,632.8,311.6z"/>
		<path class="st6" d="M632.6,484.7c-10.4-3.5-20.4-7.9-31.2-10.2c-28.7-6.1-55.4,10.1-61.6,37.6c-6.5,28.5,12.1,55.6,41.1,59.9
			c10.1,1.5,19.9,1,29.5-2.6c6.3-2.4,8.3-5.4,8.1-12.1c-0.1-2.5-0.4-5-0.5-7.5c-0.1-7.2-1.3-8.5-8.8-8.8c-3.5-0.1-7,0-10.5-0.2
			c-5.1-0.2-6.2-3.7-6.3-7.9c0-4-0.6-8.7,5.2-9.1c9.4-0.6,18.9-2,28.4-1c6.1,0.7,9,3.2,10,9.3c2,13.6,1.4,27.2,0.6,40.9
			c-0.3,4.8-2.8,8.5-7.6,10.1c-23.3,7.9-46.9,10.8-70.3,1.7c-44.8-17.4-54.9-78.8-18.7-111.5c21.1-19,45.8-21,72.1-14.8
			c5.3,1.3,10.3,3.7,15.5,5.4c5.2,1.8,7.4,5.2,6.7,10.7C633.8,477.9,633.8,481.2,632.6,484.7z"/>
		<path class="st6" d="M931.8,564.9c0-19.3,0-38.6,0-57.9c0-2.4-0.2-4.5,3.3-4.8c15.5-1.2,31-1.7,46.1,2.3
			c19.4,5.1,29.4,19.5,29.3,41c-0.1,19.9-9.2,34.7-25.6,41.3c-7.7,3.1-15.7,4-24,2.5c-8.2-1.4-10.9,0.9-11,9.4c0,8.3,0,16.6,0,25
			c0,6.5-2.3,8.7-8.7,8.8c-6.8,0.1-9.4-2.2-9.4-8.6C931.7,604.2,931.8,584.6,931.8,564.9z M992.9,544.7c0.2-6.3-0.5-12.8-5.7-18.3
			c-8.3-8.7-18.5-10.2-29.6-8.7c-6.7,0.9-8.7,3.5-8.6,10.3c0.1,11.7,0.3,23.5,0.3,35.2c0,4.8,1.8,8.9,6.3,10.3
			c6.7,2.1,13.8,2.3,20.5-0.4C988.5,568.1,993.4,558.2,992.9,544.7z"/>
		<path class="st7" d="M775.5,501.7c17.2,0.5,32.4,7.4,40.1,25c7.5,17.3,6.1,34.3-6.8,48.9c-14.9,17-45.9,19.3-64.3,5.2
			c-17.5-13.4-21.9-40.9-9.3-59.8C744.5,507.2,758.1,501.9,775.5,501.7z M773.8,574.5c14.8,1.6,29.5-13.3,29.1-29
			c-0.3-13.8-11.6-29.1-29.3-28.5c-16.4,0.5-27.8,12-28.4,28.2C744.4,561.7,759.8,576,773.8,574.5z"/>
		<path class="st8" d="M910.8,543.7c0,10.5,0,21,0,31.5c0,2.5-0.2,5-0.8,7.4c-1.5,6.9-6.5,9.5-12.6,5.8c-6.2-3.7-11.9-3.6-18.5-1.1
			c-14,5.3-25.7,3-33.4-6.1c-5.1-6-6.9-13.2-7.3-20.8c-0.9-16.8-0.8-33.6-0.7-50.4c0-6.2,2.7-8.6,9.1-8.5c6.8,0.1,9.4,2.3,9.4,8.7
			c0.1,13.2,0,26.3,0.1,39.5c0,3.5,0.2,7,0.8,10.4c1.4,9,5.1,13,12.5,13.9c9.7,1.2,17.4-2.6,20.8-10.3c1.7-3.9,2-8,2.1-12.2
			c0.5-13.3,0-26.6,0-39.9c0-6.9,2.2-9.5,7.8-10.1c7.8-0.8,11.1,2.3,11,10.2c0,10.7,0,21.3,0,32
			C910.9,543.7,910.8,543.7,910.8,543.7z"/>
		<path class="st8" d="M681.2,514c4.9-3.7,9-7.1,13.4-10.1c8.7-6.1,19.9-5,27.4,2.3c2.9,2.8,3.2,5.7,1.4,9c-1,1.9-2.2,3.7-3.4,5.5
			c-1.9,2.8-4.4,3.2-7.4,1.8c-0.3-0.1-0.6-0.3-0.9-0.5c-15.7-8.3-30.3,0.7-30.6,18.8c-0.2,12.6-0.2,25.3,0,37.9
			c0.2,10.6-5.9,11.3-13.4,10c-4.5-0.8-5.7-4.7-5.7-8.8c0-12.8,0-25.6,0-38.4c0-10.5-0.1-21-0.1-31.4c0-6.5,2.6-8.6,10.5-8.6
			c6.5,0,8.7,2.2,8.8,8.6C681.2,511.2,681.2,512.3,681.2,514z"/>
		<path class="st5" d="M1213.8,219.4c-10.3,3.3-16.8-1.3-21.3-11.6c-3.6-8.3-9.1-15.8-13.4-23.9c-2.6-4.8-1.7-4.8,3.7-5.4
			c11.5-1.5,18.9,3.5,25.5,12.3c6.3,8.2,6.9,7.7,14,0.2c0.7-0.7,1.5-1.4,2-2.2c5.9-10.9,16.1-10.7,26.4-10.2c3.1,0.1,1.5,1.9,1.1,3
			c-2.1,6.2-5.6,11.6-8.8,17.2c-2.8,4.9-5.7,9.8-8.2,14.8c-2.3,4.7-5.7,6.7-10.8,6.3C1221,219.7,1217.8,219.6,1213.8,219.4z"/>
		<path class="st0" d="M308.1,503.2c-24.8-5.5-49.8-10.2-74.6-16.1c-4.7-1.1-5.7-3.9-5.1-7.4c2-11.4,4.5-22.6,6.8-34
			c0.7-3.4,2.3-5,6.1-4.8c9.3,0.5,18.2,3.3,27.3,5.1c21.4,4.3,42.6,9.2,63.9,13.8c17.4,3.8,34.9,7.5,52.3,11.2
			c3.1,0.6,4.4,1.9,4.3,5.3c-0.4,10.5-3.4,20.5-5.7,30.6c-2.6,11.2-3,11.4-14.7,9.1c-13.1-2.6-26.2-5.5-39.2-8.5
			c-1.5-0.3-2.9-0.6-4.4-0.4C319.4,505.9,313.7,504.5,308.1,503.2z"/>
		<path class="st0" d="M224.9,527.8c8.6,1.8,18.2,4,27.9,6c15.8,3.4,31.6,6.7,47.5,10c21.5,4.5,42.9,8.9,64.4,13.5
			c4.7,1,7.1,4.6,6.2,9.7c-1.9,10.7-3.9,21.4-6,32.1c-0.9,4.4-5,6.8-10.1,5.3c-12.4-3.5-25-6-37.6-8.6c-18.2-3.8-36.4-7.8-54.7-11.7
			c-15.8-3.4-31.6-6.7-47.5-10c-3.5-0.7-5.3-2.5-4.9-6.2c0.6-4.9,1.1-9.9,2.1-14.7c1.4-6.8,3.1-13.5,4.8-20.2
			C218.2,528.1,218.7,527.7,224.9,527.8z"/>
		<path class="st9" d="M334.1,737.2c-1.7,8.1-3.5,16.3-5.3,24.6c-0.7,3.3-1.3,6.5-1.9,9.8c-1.1,5.7-2.9,6.9-8.7,5.6
			c-22.9-4.8-45.9-9.7-68.8-14.6c-22.9-4.9-45.8-9.9-68.8-14.8c-7.9-1.7-8.3-2.2-6.7-9.9c2.1-10.3,4.3-20.5,6.4-30.8
			c0.9-4.2,3.3-5.9,7.6-5c47,10,94,20,141,30.1C331.3,732.8,334.4,733.1,334.1,737.2z"/>
		<path class="st9" d="M352,651.6c-1.6,7.9-3.5,16.7-5.3,25.4c-0.4,2.1-1,4.2-1.5,6.3c-1.7,7.9-1.9,8-9.5,6.4
			c-45.7-9.7-91.3-19.4-137-29.2c-7.3-1.6-7.7-2.3-6-9.9c2.3-10.7,4.7-21.4,6.8-32.2c0.6-3.4,1.9-3.8,5-3.1
			c47.3,10.2,94.5,20.3,141.8,30.5C349.1,646.4,352.3,646.5,352,651.6z"/>
		<path class="st10" d="M407.9,385.1c-0.5,9.8-3.9,19-5.3,28.7c-0.5,3.7-1.8,7.4-2.3,11.1c-0.6,4.6-3.7,5.6-7.1,4.8
			c-9.2-2.2-18.4-4-27.9-3.9c-4.1,0.1-8.3-1.5-12.1-3.7c-6.1-3.6-13.3-3.6-20.1-5c-24.3-5.4-48.7-10.4-73.1-15.6
			c-1.8-0.4-3.6-0.7-5.3-1.1c-7.9-1.9-9.2-3.9-7.2-11.9c2.3-9.3,4.1-18.7,5.9-28.1c0.5-2.8,0.7-6.5,4.7-7.5c5.4,1.5,11.1,2,16.3,4.4
			c-0.9,1.6-1.6,3.2-2.6,4.7c-5.1,7.6-10.1,15.2-15.3,22.7c-2.4,3.4-1.1,4.7,2.4,4.9c0.8,0.1,1.7,0,2.5,0c45.2,0,90.5,0,135.7,0.1
			c4.1,0,7-1.2,9.1-4.7C406.7,385.1,407.3,385.1,407.9,385.1z"/>
		<path class="st10" d="M424.9,298.1c-0.4,6.6-0.9,13.3-1.3,19.9c-1.4,8.6-3.8,16.9-6.6,25.1c-16.2-0.8-31.7-6-47.5-8.8
			c-9.2-1.6-18.2-4.6-27.6-5.3c0.5-1.2,0.8-2.5,1.6-3.6c8.8-13.2,17.6-26.3,26.5-39.4c11.7,2.7,23.4,5.4,35.1,8
			C411.6,295.4,418.3,296.7,424.9,298.1z"/>
		<path class="st11" d="M341.9,329c9.4,0.7,18.4,3.7,27.6,5.3c15.9,2.8,31.3,8,47.5,8.8c-3,14-6.8,27.9-9.1,42
			c-0.6,0-1.2-0.1-1.9-0.1c0.7-5.8-1.2-11.6-0.8-17.4c0.4-5-1.7-6.2-6.3-6.1c-23.1,0.2-46.2,0.1-69.3,0.1c-2.1,0-4.3-0.3-6.4-0.5
			c-2.2-0.2-2.4-1.3-1.2-3C328.8,348.4,334.6,338.2,341.9,329z"/>
		<path class="st10" d="M269.2,283.2c3.1-2.6,1.5-6.6,2.6-9.8c1.9-5.8,3.9-7.2,10.2-5.8c15.3,3.2,30.6,6.4,45.9,9.6
			c-0.7,3.9-3.7,6.5-5.8,9.6c-7.2,10.9-14,22-22,32.3c-11.6-2.1-23.3-4.1-34.9-6.2c-1.3-8.1,2.5-15.5,3.4-23.4
			C268.8,287.4,268.9,285.3,269.2,283.2z"/>
		<path class="st2" d="M265.2,312.9c11.6,2.1,23.3,4.1,34.9,6.2c-8.6,12.7-17.2,25.5-25.9,38.2c-5.2-2.3-10.9-2.9-16.3-4.4
			c-0.1-11.9,2.9-23.3,5.9-34.7C264.3,316.5,264.7,314.7,265.2,312.9z"/>
		<path class="st2" d="M308.1,503.2c5.7,1.3,11.3,2.7,17,4c-1.5,3.2-4.4,1.8-6.5,1.6C314.5,508.3,310.2,507.6,308.1,503.2z"/>
		<path class="st4" d="M274.3,357.3c8.6-12.7,17.2-25.5,25.9-38.2c8-10.3,14.8-21.5,22-32.3c2.1-3.1,5.1-5.7,5.8-9.6
			c2.6-3.7,5-7.4,7.7-11c2.3-3.1,0.8-4-2.2-4.1c-2.5-0.1-5-0.1-7.5-0.1c-20.6,0-41.2-0.1-61.9,0.1c-4.8,0.1-6.6-1.8-6.5-6.3
			c0.1-5.8,0.1-11.6,0-17.5c-0.1-4,1.6-5.4,5.7-5.4c18.6,0.2,37.2,0,55.9,0c18.4,0.1,36.9,0.2,55.3,0.2c8,0,16,0,23.9,0
			c1.6,0,3.7-0.7,4.5,1c0.9,1.7-1.1,2.9-1.8,4.3c-1.9,3.6-5.2,6.5-6.2,10.6c-8.8,12-16.9,24.5-24.9,37
			c-8.8,13.1-17.7,26.3-26.5,39.4c-0.7,1.1-1,2.4-1.6,3.6c-7.3,9.2-13.2,19.5-19.9,29.1c-1.2,1.7-1,2.7,1.2,3
			c2.1,0.2,4.3,0.5,6.4,0.5c23.1,0,46.2,0.1,69.3-0.1c4.7,0,6.7,1.2,6.3,6.1c-0.4,5.8,1.5,11.5,0.8,17.4c-2,3.5-5,4.7-9.1,4.7
			c-45.2-0.1-90.5-0.1-135.7-0.1c-0.8,0-1.7,0-2.5,0c-3.6-0.3-4.8-1.5-2.4-4.9c5.2-7.5,10.3-15.1,15.3-22.7
			C272.6,360.5,273.4,358.9,274.3,357.3z"/>
		<path class="st0" d="M463.3,129.9c-2.5,11.6-4.9,23.3-7.7,34.8c-1.2,4.8-5.6,4.9-9.5,4.2c-7.6-1.4-15.2-3.2-22.8-4.8
			c-25.4-5.3-50.8-10.6-76.1-16c-14.1-3-28.1-6.1-42.1-9.1c-3.8-0.8-3.4-3.8-2.9-6.3c1.8-10.4,3.4-20.9,6.5-31
			c0.4-1.3,0.7-2.6,0.9-3.9c0.8-4.4,3.7-5.2,7.4-4.4c27.3,5.7,54.6,11.5,81.9,17.3c19.5,4.2,39.1,8.4,58.6,12.5
			C461.3,124,464.1,125.2,463.3,129.9z"/>
		<path class="st0" d="M394.8,249c1.1-4.1,4.3-7,6.2-10.6c0.7-1.4,2.7-2.6,1.8-4.3c-0.9-1.7-2.9-1-4.5-1c-8,0-16,0-23.9,0
			c-18.4-0.1-36.9-0.2-55.3-0.2c-9.2-1.9-18.3-4-27.5-5.8c-7.2-1.5-8.7-3.3-7.3-10.6c1.5-7.9,3.3-15.9,5.1-23.7
			c3-12.9,3.2-13.2,16.4-10.5c26.1,5.2,52,11.2,78.1,16.2c15.2,2.9,30.1,7.5,45.7,8.9c4.6,0.4,9.1,2.8,13.7,4.2c3.2,1,2,4.6,1.5,7.1
			c-1.5,7.1-3.3,14.2-5,21.2c-1,4.3-2.1,8.7-3,13c-0.5,2.5-1.8,4.1-4.4,3.3c-8.1-2.3-17,0.6-25-4.4C403.9,249.5,399.2,249,394.8,249
			z"/>
		<path class="st10" d="M1043.6,360.3c-14.7,0.6-27.5-3.8-37.8-14.5c-8.7-9.1-12.2-20.1-12.4-32.6c-0.2-18.7,5.9-33.9,22.5-43.6
			c11.2-6.5,23.6-7.1,36.3-6c23.4,2.1,37.7,17.5,41.1,38.1c4.6,27.6-7.7,51.4-36.8,57.9C1052.2,360.6,1047.9,360.1,1043.6,360.3z"/>
		<path class="st12" d="M514,263.2c14.9-0.3,28,4.1,38.6,14.9c4.8,4.9,7.8,11,9,17.3c3,15,3.8,30.1-5.2,43.7
			c-8.5,12.8-20.2,20.7-36.1,21.3c-11.9,0.5-23.7,0.2-34-6.6c-13.8-9.1-22-21.5-22.7-38.5c-0.5-10.3,1.2-19.9,6.2-29.2
			c5.5-10.3,14.2-16.2,24.7-20.2C500.7,263.6,507.3,263.2,514,263.2z"/>
		<path class="st10" d="M813.5,312c0-14.5,0-29,0-43.5c0-6.4,0.4-6.9,6.8-6.9c9.8-0.1,19.8-0.8,29.5,0.4c17,2,30.4,10,36.9,26.9
			c6.5,16.6,6.3,33.2-1.4,49.2c-5.6,11.7-15.5,18.6-27.9,22.1c-12.6,3.5-25.5,1.5-38.2,2c-4.4,0.2-5.7-2.2-5.7-6.3
			C813.6,341.4,813.5,326.7,813.5,312z"/>
		<path class="st13" d="M992.9,544.7c0.5,13.6-4.4,23.4-16.9,28.5c-6.7,2.7-13.8,2.5-20.5,0.4c-4.5-1.4-6.3-5.4-6.3-10.3
			c0-11.7-0.1-23.5-0.3-35.2c-0.1-6.8,2-9.3,8.6-10.3c11.1-1.6,21.3,0,29.6,8.7C992.4,531.8,993.1,538.3,992.9,544.7z"/>
		<path class="st13" d="M773.8,574.5c-14,1.5-29.4-12.8-28.7-29.3c0.7-16.1,12-27.7,28.4-28.2c17.8-0.6,29,14.7,29.3,28.5
			C803.3,561.2,788.5,576.1,773.8,574.5z"/>
	</g>
</g>
</svg>
