<svg id="Zoldos_Group_Logo-3_Image" data-name="Zoldos Group Logo-3 Image" xmlns="http://www.w3.org/2000/svg" viewBox="0 0 370.53 226.58"><defs><style>.cls-1{fill:#050505;}.cls-2{fill:#fcfcfc;}.cls-3{fill:#f2f2f2;}.cls-4{fill:#111;}.cls-5{fill:#1d1d1d;}.cls-6{fill:#fafafa;}.cls-7{fill:#040404;}.cls-8{fill:#cda7cd;}.cls-9{fill:#fefefe;}.cls-10{fill:#020202;}.cls-11{fill:#a6b2b2;}</style></defs><path class="cls-1" d="M317.17,92.34c.24,5.61-2.32,9.53-7.62,11.41a23.6,23.6,0,0,1-13.7.24,27.84,27.84,0,0,1-6-2.29,1.44,1.44,0,0,1-1-1.45c.05-2.28,0-4.56,0-7.16l2.51,1.44a21.94,21.94,0,0,0,8.92,3.25,13.44,13.44,0,0,0,4.29-.24A3.25,3.25,0,0,0,307.39,95c.29-1.56-.62-2.58-1.82-3.36a19.21,19.21,0,0,0-3.91-1.79,57.89,57.89,0,0,1-7.28-3c-4.23-2.3-6.52-5.74-6.21-10.72a9.33,9.33,0,0,1,3.61-7,15.08,15.08,0,0,1,8.4-3.14,30.52,30.52,0,0,1,14.06,2.29c.94.37,1.41.81,1.36,1.9-.09,1.91,0,3.83,0,6-2.31-.82-4.25-1.52-6.2-2.2a20.14,20.14,0,0,0-5.15-1,9.66,9.66,0,0,0-3.56.32c-1.25.36-2.47.94-2.69,2.42s.83,2.39,2,3c1.56.8,3.19,1.45,4.82,2.09a44.75,44.75,0,0,1,6.57,2.9C314.68,85.55,317,88.24,317.17,92.34Z"/><path class="cls-1" d="M308.66,53.39a24.69,24.69,0,0,0,2.74,0,16,16,0,0,1-2,4.16c-.77,1.48-1.69,2.88-2.42,4.38a2.11,2.11,0,0,1-2.28,1.3c-1.67-.08-3.34,0-5,0a1.39,1.39,0,0,1-1.42-.64c-1.32-2.36-2.68-4.7-4-7.06a4.3,4.3,0,0,1-.86-2.12c1.15,0,2.25.05,3.34,0a2.54,2.54,0,0,1,2.26,1,22.31,22.31,0,0,0,3.5,3.65c1-1.09,2.06-2.08,2.94-3.2A3.31,3.31,0,0,1,308.66,53.39Z"/><path class="cls-1" d="M259.65,96.82c9.36,1,15.45-6.1,13-15.27-1.34-4.94-5.62-7.76-11.31-7.77-5.46,0-9.84,2.67-11.28,7.22C247.66,88.46,251.2,95.93,259.65,96.82Zm15.43-26.75c5.71,4.43,8.68,10.26,7.72,17.56-1,7.66-5.61,12.67-12.56,15.67a22,22,0,0,1-4.38,1.2,26.18,26.18,0,0,1-4.29.32c-5.59.05-10.3-1.2-14.39-4.36-9.91-7.65-10.31-21.3-.86-29.53C253.83,64.38,267.16,63.93,275.08,70.07Z"/><path class="cls-2" d="M272.61,81.55c2.49,9.17-3.6,16.26-13,15.27-8.45-.89-12-8.36-9.63-15.82,1.44-4.55,5.82-7.23,11.28-7.22C267,73.79,271.27,76.61,272.61,81.55Z"/><path class="cls-3" d="M247.1,136.65c2.15,2,2.52,5.76.94,8.51a6.43,6.43,0,0,1-7.51,2.94,2.23,2.23,0,0,1-1.84-2.43v-4.35h0a6.38,6.38,0,0,1,0-1.45c.34-1.6-1.08-4,1.13-4.66A7.47,7.47,0,0,1,247.1,136.65Z"/><path class="cls-4" d="M240.53,148.1a6.43,6.43,0,0,0,7.51-2.94c1.58-2.75,1.21-6.55-.94-8.51a7.47,7.47,0,0,0-7.27-1.44c-2.21.63-.79,3.06-1.13,4.66a6.38,6.38,0,0,0,0,1.45h0v4.35A2.23,2.23,0,0,0,240.53,148.1ZM245,131.36c5.76,1.06,8.57,5,8.13,11.3a9.76,9.76,0,0,1-9.84,9.4,7.85,7.85,0,0,1-1.94-.1c-2.31-.55-2.79.62-2.69,2.61s0,3.89,0,5.84c0,1.51-.84,1.91-2.18,1.88s-2.13-.4-2.13-1.93c0-9.7,0-19.39,0-29.14A37.07,37.07,0,0,1,245,131.36Z"/><path class="cls-5" d="M229.23,141.51c0,2.6.07,5.2,0,7.8-.09,2.37-1.45,3.51-3.34,2.33-1.61-1-2.53-.83-4.1-.23-5.32,2.06-9.5-.55-9.89-6.21-.28-4-.12-8.11-.2-12.17,0-1.39.51-2.1,2-2.12s2.46.37,2.42,2.17c-.08,3.4-.1,6.82,0,10.22.1,3.67,1.2,5,3.84,5.06,3.1,0,4.84-1.75,4.9-5.19.06-3.25.05-6.5,0-9.74,0-1.51.32-2.51,2.11-2.52s2.35.68,2.32,2.32C229.19,136,229.23,138.75,229.23,141.51Z"/><path class="cls-6" d="M215.46,97c-2.76.52-5.57.25-8.36.3-1.07,0-1.1-.64-1.1-1.42q0-5.26,0-10.53c0-3.35,0-6.7,0-10.06,0-1.86,0-1.89,1.79-1.89,2,0,4,0,6,.09,5.84.36,9.6,3.78,10.52,9.56a14,14,0,0,1-.56,6.85A10.26,10.26,0,0,1,215.46,97Z"/><path class="cls-7" d="M207.1,97.3c2.79,0,5.6.22,8.36-.3a10.26,10.26,0,0,0,8.28-7.1,14,14,0,0,0,.56-6.85c-.92-5.78-4.68-9.2-10.52-9.56-2-.13-4-.1-6-.09-1.76,0-1.78,0-1.79,1.89,0,3.36,0,6.71,0,10.06q0,5.27,0,10.53C206,96.66,206,97.32,207.1,97.3Zm27-14a23.49,23.49,0,0,1-.23,6.21c-1.49,7.62-6.85,12.71-14.95,14.18a29.42,29.42,0,0,1-5.47.56c-5.35,0-10.7,0-16.05,0a3.7,3.7,0,0,1-.76-.16V66.55a5.16,5.16,0,0,1,2.41-.21c5.28,0,10.55-.11,15.82.07,5.5.18,10.5,1.84,14.43,6A17.16,17.16,0,0,1,234.11,83.33Z"/><path class="cls-3" d="M203.2,141.4a6.75,6.75,0,0,1-13.5.15,6.61,6.61,0,0,1,6.65-6.78A6.74,6.74,0,0,1,203.2,141.4Z"/><path class="cls-4" d="M189.7,141.55a6.75,6.75,0,0,0,13.5-.15,6.74,6.74,0,0,0-6.85-6.63A6.61,6.61,0,0,0,189.7,141.55Zm17.7-.08c.07,6.32-4.57,10.7-11.24,10.61-6.34-.09-10.77-4.52-10.69-10.7s4.66-10.42,11-10.41S207.34,135.27,207.4,141.47Z"/><path class="cls-7" d="M189.8,97.26c1.22,0,1.75.31,1.65,1.61a30.71,30.71,0,0,0,0,4.07c.05,1-.29,1.4-1.35,1.38-2.71-.06-5.43,0-8.15,0-5.83,0-11.66,0-17.49,0-1.88,0-1.9,0-1.9-2,0-5.68,0-11.35,0-17s0-11.51,0-17.26c0-1.67,0-1.69,1.71-1.71,2,0,4,0,6,0,1.77,0,1.79,0,1.79,1.89q0,12.94,0,25.89c0,3.17,0,3.17,3.14,3.17C180.06,97.28,184.93,97.31,189.8,97.26Z"/><path class="cls-5" d="M181.48,135.77c-1.55-1-3.13-1.7-4.89-.3a6.45,6.45,0,0,0-2.52,5.47c0,2.91,0,5.81,0,8.71,0,1.63-.62,2.28-2.28,2.28s-2.22-.86-2.21-2.39c0-5.16,0-10.32,0-15.48,0-1.22-.41-2.8,1.45-3.07s3.66-.15,3,3.14a45.7,45.7,0,0,1,3.65-2.86,5.15,5.15,0,0,1,6.22.76c1,.87.69,1.65.09,2.52S183,136.72,181.48,135.77Z"/><path class="cls-4" d="M163.57,144c0,6.23,0,6.21-6,7.57a24.58,24.58,0,0,1-9.2.29c-8.28-1.3-13.65-8-13.33-16.52a16.21,16.21,0,0,1,15.32-15.44,22.08,22.08,0,0,1,10,1.64c2.78,1.12,2.78,1.11,2.2,5.31-2.76-1-5.39-2.18-8.27-2.6-5.57-.82-10.7,1.59-13.12,6.28a12.4,12.4,0,0,0,1.74,13.63c3.38,3.67,9.63,4.87,14.41,3,2.69-1.05,1.59-3.19,1.72-5,.14-1.94-1.35-1.85-2.67-1.86-.65,0-1.3,0-1.95,0-1.3-.06-1.52-.95-1.54-2s.06-2,1.4-2.08c.33,0,.65,0,1,0C163.57,135.54,163.57,135.54,163.57,144Z"/><path class="cls-2" d="M134,73.78c7.15,0,11.86,4.57,11.87,11.52S141.11,96.92,134.06,97c-6.28,0-10.84-3.67-11.81-9.31.65-3.15,1.3-6.3,2-9.45C126.28,75.41,129.7,73.79,134,73.78Z"/><path class="cls-2" d="M124.22,78.2c-.67,3.15-1.32,6.3-2,9.45a13.44,13.44,0,0,1-.2-2.41A11.81,11.81,0,0,1,124.22,78.2Z"/><path class="cls-7" d="M122.25,87.65c1,5.64,5.53,9.35,11.81,9.31,7.05,0,11.82-4.75,11.81-11.66S141.15,73.78,134,73.78c-4.3,0-7.72,1.63-9.78,4.42.53-2.56,1.07-5.11,1.61-7.67.27-1.24.53-2.49.8-3.73a23.76,23.76,0,0,1,15.59.33c7.22,2.59,11.91,7.67,13.2,15.38C157,92.24,151,99.2,145,102.36a22,22,0,0,1-11,2.45,21.45,21.45,0,0,1-11.6-2.71,27.88,27.88,0,0,1-2.74-1.85A67.34,67.34,0,0,0,121,92.66a2,2,0,0,0,.43-1.09C121.7,90.26,122,89,122.25,87.65Z"/><path class="cls-7" d="M121,92.66c-.86-4.29-5-5.92-8.42-3.41a18.89,18.89,0,0,1-.33-3.42c.15-.63.3-1.26.43-1.89.17-.85.17-1.26-.18-1.53,1.09-7.3,5.63-12.29,12.58-15.06.51-.2,1-.39,1.55-.55-.27,1.24-.53,2.49-.8,3.73-.54,2.56-1.08,5.11-1.61,7.67a11.81,11.81,0,0,0-2.17,7,13.44,13.44,0,0,0,.2,2.41c-.28,1.31-.55,2.61-.82,3.92A2,2,0,0,1,121,92.66Z"/><path class="cls-7" d="M112.58,89.25c3.4-2.51,7.56-.88,8.42,3.41a67.34,67.34,0,0,1-1.34,7.59A18,18,0,0,1,112.58,89.25Z"/><path class="cls-7" d="M112.5,82.41c.35.27.35.68.18,1.53-.13.63-.28,1.26-.43,1.89,0-.64,0-1.29.08-2C112.37,83.37,112.43,82.89,112.5,82.41Z"/><path class="cls-8" d="M112.58,89.25a2.55,2.55,0,0,0-.28.21l-.92.76a34.08,34.08,0,0,1,.87-4.39A18.89,18.89,0,0,0,112.58,89.25Z"/><path class="cls-9" d="M110.82,92.56a12.58,12.58,0,0,1-2.38-.09c-5.23-1.1-10.46-2.24-15.69-3.36l6.48-9.71L111.38,82a3.23,3.23,0,0,1,1.12.38c-.07.48-.13,1-.17,1.46-.06.67-.08,1.32-.08,2a34.08,34.08,0,0,0-.87,4.39A4.76,4.76,0,0,0,110.82,92.56Z"/><path class="cls-8" d="M110.82,92.56l-2.4,10.65-.42-.09c.32-1.18-.17-2.82-.12-4.16.05-1.63,0-1.67-1.76-1.67-5.35,0-10.71,0-16.07,0A5.27,5.27,0,0,1,87.5,97q2.64-3.95,5.25-7.87c5.23,1.12,10.46,2.26,15.69,3.36A12.58,12.58,0,0,0,110.82,92.56Z"/><path class="cls-7" d="M107.7,66.71c-.73,1.09-1.46,2.18-2.18,3.28q-8.3-1.77-16.61-3.51l-.7-.15h18A1.72,1.72,0,0,1,107.7,66.71Z"/><path class="cls-7" d="M76.38,96.37,108,103.12a2,2,0,0,1-.52.89c-1,1-3.2.27-4.86.28q-14.4,0-28.79,0a6,6,0,0,1-2.59-.26Z"/><path class="cls-7" d="M105.52,70q-3.15,4.7-6.29,9.41l-10-2.15,2.4-3.57a3.49,3.49,0,0,0-1.93-.28c-5.12,0-10.23,0-15.35,0-1.84,0-1.85,0-1.87-1.82,0-1.36,0-2.72,0-4.08,0-.79.24-1.22,1.09-1.16.32,0,.64,0,1,0h13.7l.7.15Q97.22,68.24,105.52,70Z"/><path class="cls-10" d="M109.71,197.17A82.9,82.9,0,0,1,98.86,199c-.23-2.35.65-4.54,1.11-6.77,2-9.58,4-19.13,6.09-28.69.16-.75.1-1.62,1-2A76.94,76.94,0,0,1,124.71,168a32.55,32.55,0,0,1,6.13,4.15,17.66,17.66,0,0,1,2.59,2.81c2.72,3.71,2.63,7.66-.27,11.21a20.53,20.53,0,0,1-6,4.77A63,63,0,0,1,109.71,197.17Z"/><path class="cls-7" d="M99.23,79.4l-6.48,9.71q-3.68-.8-7.36-1.56L82.7,87l6.52-9.71Z"/><path class="cls-7" d="M58.7,158l10.63,2.25,24.1,5.14c1.9.41,1.92.45,1.56,2.27-.47,2.35-1,4.69-1.49,7-.38,1.76-.4,1.8-2.18,1.43q-9.6-2-19.19-4.08c-4.76-1-9.51-2.06-14.27-3-1-.19-1.45-.46-1.21-1.53C57.34,164.38,58,161.27,58.7,158Z"/><path class="cls-9" d="M117.93,50.84l-8-1.69c-8-1.69-16.06-3.3-24-5.11-3.47-.79-2.74.19-2.21-3.45.28-2,.84-3.89,1.26-5.83.37-1.69.58-1.85,2.25-1.51q10.28,2.16,20.55,4.33c4.13.87,8.24,1.79,12.37,2.68,1.69.36,1.7.35,1.37,2q-.75,3.63-1.55,7.24C119.65,50.7,119.38,50.87,117.93,50.84Z"/><path class="cls-7" d="M108,103.12,76.38,96.37Q79.53,91.66,82.7,87l2.69.59q3.69.77,7.36,1.56Q90.14,93,87.5,97a5.27,5.27,0,0,0,2.55.29c5.36,0,10.72,0,16.07,0,1.73,0,1.81,0,1.76,1.67C107.83,100.3,108.32,101.94,108,103.12Z"/><path class="cls-9" d="M113.65,71.73q-4.07-.89-8.13-1.74c.72-1.1,1.45-2.19,2.18-3.28a1.72,1.72,0,0,0-1.53-.37h-18l-7.7-1.61c-1.66-.35-1.79-.52-1.44-2.23.47-2.26.94-4.51,1.46-6.76.43-1.88.47-1.93,2.26-1.57q9.58,2,19.15,4c4.36.91,8.71,1.84,13.07,2.76.47.1.92.24,1.39.34.73.15,1.21.45.87,1.18-.67,2.84-1.32,5.55-1.93,8.27C115.12,71.7,114.7,72,113.65,71.73Z"/><path class="cls-8" d="M82.7,87q-3.17,4.71-6.32,9.41L74.49,96c-.69-.15-1.37-.37-2.06-.55a39.64,39.64,0,0,1,2-10A75.1,75.1,0,0,1,82.7,87Z"/><path class="cls-9" d="M78.12,74.9c1.55.35,3.11.63,4.66,1l6.44,1.38L82.7,87a75.1,75.1,0,0,0-8.28-1.59c-.16-1.44.42-2.76.66-4.13a20,20,0,0,0,.32-2.55c.7-.69.45-1.66.67-2.48C76.39,75,77,74.64,78.12,74.9Z"/><path class="cls-8" d="M109.94,49.15l8,1.69c1.45,0,1.72-.14,2-1.38q.79-3.62,1.55-7.24c.33-1.61.32-1.6-1.37-2-4.13-.89-8.24-1.81-12.37-2.68q-10.26-2.19-20.55-4.33c-1.67-.34-1.88-.18-2.25,1.51-.42,1.94-1,3.87-1.26,5.83-.53,3.64-1.26,2.66,2.21,3.45C93.88,45.85,101.92,47.46,109.94,49.15ZM75.4,78.69c-1-1.78-2.13-3.19-4.39-3.49a6.58,6.58,0,0,0-5.21,1.57c.59-4.34,1.68-8.59,2.58-12.87q4.2-20.11,8.48-40.2c.6-2.81,1.28-5.6,1.84-8.41.8-4,4.57-5.42,8.13-3.26,1.81,1.1,2.22,3,1.88,5.07-.2,1.18-.56,2.33-.79,3.5-.31,1.59-.09,2,1.54,2.35,4.35,1,8.71,1.88,13.07,2.8q9.82,2.09,19.64,4.13c1.69.36,1.71.34,2.13-1.25.35-1.31.63-2.64,1-3.95.8-3,3-4.48,5.62-3.86,3.48.82,5,3,4.26,6.26q-4.25,19.86-8.52,39.72c-.52.16-1,.35-1.55.55-7,2.77-11.49,7.76-12.58,15.06a3.23,3.23,0,0,0-1.12-.38L99.23,79.4q3.15-4.71,6.29-9.41,4.07.86,8.13,1.74c1,.23,1.47,0,1.69-1,.61-2.72,1.26-5.43,1.93-8.27.34-.73-.14-1-.87-1.18-.47-.1-.92-.24-1.39-.34-4.36-.92-8.71-1.85-13.07-2.76q-9.57-2-19.15-4C81,53.8,81,53.85,80.53,55.73c-.52,2.25-1,4.5-1.46,6.76-.35,1.71-.22,1.88,1.44,2.23l7.7,1.61H74.51c-.32,0-.64,0-1,0-.85-.06-1.11.37-1.09,1.16,0,1.36,0,2.72,0,4.08,0,1.79,0,1.82,1.87,1.82,5.12,0,10.23,0,15.35,0a3.49,3.49,0,0,1,1.93.28l-2.4,3.57-6.44-1.38c-1.55-.34-3.11-.62-4.66-1-1.16-.26-1.73.13-2.05,1.31C75.85,77,76.1,78,75.4,78.69Z"/><path class="cls-9" d="M71.24,104a6,6,0,0,0,2.59.26q14.4,0,28.79,0c1.66,0,3.82.71,4.86-.28a2,2,0,0,0,.52-.89l.42.09c-.65,3.12-1.3,6.23-1.93,9.35-.23,1.12-.88,1-1.79.85-5-1.08-10-2.08-15-3.13C83.87,109,78,107.77,72.19,106.53c-2.26-.48-2.38-.64-1.9-2.84.44-2,.82-4.07,1.29-6.09a3.84,3.84,0,0,1,.85-2.18c.69.18,1.37.4,2.06.55l1.89.4Z"/><path class="cls-11" d="M91.32,176.12c1.78.37,1.8.33,2.18-1.43.51-2.34,1-4.68,1.49-7,.36-1.82.34-1.86-1.56-2.27l-24.1-5.14L58.7,158c-.7,3.27-1.36,6.38-2.05,9.48-.24,1.07.25,1.34,1.21,1.53,4.76,1,9.51,2,14.27,3Q81.73,174.1,91.32,176.12Zm2.09-21.51c1.23.26,2.59,1.14,3.66.59,1.3-.65.85-2.44,1.23-3.71.52-1.74.78-3.57,1-4.86.16-1.92-1-2-1.85-2.15q-6.64-1.42-13.31-2.81c-6.53-1.38-13.08-2.73-19.61-4.15-1-.22-1.48,0-1.69,1-.44,2.27-1,4.52-1.42,6.78-.49,2.44-.47,2.48,2.06,3Q78.46,151.48,93.41,154.61Zm-6.36,42.46c1.2.26,1.73.06,2-1.23.47-2.67,1.11-5.31,1.74-8.22.32-1.07-.67-1.17-1.53-1.36q-16.74-3.56-33.48-7.13c-1.12-.25-1.6,0-1.82,1.13-.47,2.43-1,4.84-1.53,7.26-.42,2.06-.4,2.06,1.66,2.5l17.55,3.75C76.75,194.86,81.91,195.92,87.05,197.07ZM68.17,127.54,93,132.79c2.42.51,4.83,1.07,7.25,1.52,1.55.29,1.71.13,2-1.46.51-2.33,1-4.67,1.48-7,.33-1.71.29-1.7-1.5-2.09l-25.7-5.54c-2.33-.5-4.67-1-7-1.5-.85-.17-1.89-.43-2.17.78-.62,2.72-1.12,5.47-1.67,8.2-.1.85.15,1.4,1.1,1.51A14.13,14.13,0,0,1,68.17,127.54ZM65.8,76.77A6.58,6.58,0,0,1,71,75.2c2.26.3,3.42,1.71,4.39,3.49a20,20,0,0,1-.32,2.55c-.24,1.37-.82,2.69-.66,4.13a39.64,39.64,0,0,0-2,10,3.84,3.84,0,0,0-.85,2.18c-.47,2-.85,4.06-1.29,6.09-.48,2.2-.36,2.36,1.9,2.84,5.85,1.24,11.68,2.51,17.53,3.75,5,1,10,2,15,3.13.91.19,1.56.27,1.79-.85.63-3.12,1.28-6.23,1.93-9.35l2.4-10.65a4.76,4.76,0,0,1,.56-2.34l.92-.76a2.55,2.55,0,0,1,.28-.21,18,18,0,0,0,7.08,11c-.44,2-.91,4-1.33,6-2.46,11.86-5,23.7-7.52,35.54-1.16,5.46-2.32,10.91-3.52,16.36a8.41,8.41,0,0,0-.25,3.31c-.88.41-.82,1.28-1,2-2,9.56-4.12,19.11-6.09,28.69-.46,2.23-1.34,4.42-1.11,6.77-6.85,1.15-13.77,1.16-20.69,1.23a161.8,161.8,0,0,1-34.63-3.53c-.94-.2-2.12-.05-2.79-1.07a5,5,0,0,1,.24-2.34c2.3-10.81,4.63-21.61,6.89-32.43.18-.86.78-1.8.1-2.73,1.17-2.22,1.36-4.71,1.88-7.09,3-14.08,6-28.18,9-42.27Q62.1,93.54,65.3,78.36C65.42,77.82,65.63,77.3,65.8,76.77Z"/><path class="cls-9" d="M69.52,116.7c2.34.48,4.68,1,7,1.5l25.7,5.54c1.79.39,1.83.38,1.5,2.09-.46,2.35-1,4.69-1.48,7-.34,1.59-.5,1.75-2,1.46-2.42-.45-4.83-1-7.25-1.52l-24.78-5.25a14.13,14.13,0,0,0-1.39-.35c-1-.11-1.2-.66-1.1-1.51.55-2.73,1-5.48,1.67-8.2C67.63,116.27,68.67,116.53,69.52,116.7Z"/><path class="cls-9" d="M64.57,137.52c6.53,1.42,13.08,2.77,19.61,4.15q6.66,1.4,13.31,2.81c.9.19,2,.23,1.85,2.15-.26,1.29-.52,3.12-1,4.86-.38,1.27.07,3.06-1.23,3.71-1.07.55-2.43-.33-3.66-.59q-15-3.15-29.89-6.31c-2.53-.53-2.55-.57-2.06-3,.45-2.26,1-4.51,1.42-6.78C63.09,137.48,63.56,137.3,64.57,137.52Z"/><path class="cls-7" d="M55.74,179.13q16.73,3.6,33.48,7.13c.86.19,1.85.29,1.53,1.36-.63,2.91-1.27,5.55-1.74,8.22-.23,1.29-.76,1.49-2,1.23-5.14-1.15-10.3-2.21-15.45-3.3L54.05,190c-2.06-.44-2.08-.44-1.66-2.5.5-2.42,1.06-4.83,1.53-7.26C54.14,179.15,54.62,178.88,55.74,179.13Z"/><path class="cls-10" d="M48,158.08c.68.93.08,1.87-.1,2.73-2.26,10.82-4.59,21.62-6.89,32.43a5,5,0,0,0-.24,2.34,3.59,3.59,0,0,1-1.16.09,77,77,0,0,1-18.72-7.11,27.25,27.25,0,0,1-6.65-5.05c-4.33-4.67-4.17-9.75.5-14.08a31.07,31.07,0,0,1,9.84-5.81A89.84,89.84,0,0,1,48,158.08Z"/></svg>